# xmcd CD database file
#
# Track frame offsets:
#	150
#	6871
#	20249
#	32172
#	42758
#	57167
#	75514
#	87518
#	99368
#	112414
#	124004
#	134108
#
# Disc length: 1981 seconds
#
# Revision: 1
# Processed by: cddbd v1.5.2PL0 Copyright (c) Steve Scherf et al.
# Submitted via: CDex 1.70beta2
#
DISCID=a207bb0c
DTITLE=Slam and Howie And The Reserve Men - Vicious Songs
DYEAR=2007
DGENRE=Speed Country
TTITLE0=Farwell To Nashville
TTITLE1=Shotgun Rag
TTITLE2=Young Men Like Ol Ladies
TTITLE3=Alabama Zak
TTITLE4=My Forsaken Grave
TTITLE5=Lonely Rider
TTITLE6=Drinkin and Ramblin´
TTITLE7=Cowboy Song
TTITLE8=A Million Flowers
TTITLE9=I´m Not Jesus, I´m The Holy Ghost
TTITLE10=That´s All Right Momma
TTITLE11=A Good Day To Die
EXTD=YEAR: 2007
EXTT0=
EXTT1=
EXTT2=
EXTT3=
EXTT4=
EXTT5=
EXTT6=
EXTT7=
EXTT8=
EXTT9=
EXTT10=
EXTT11=
PLAYORDER=
